# xmcd CD database file
#
# Track frame offsets:
#	150
#	13360
#	25970
#	40455
#	51993
#	69375
#	83278
#	94330
#	106358
#	120505
#	140415
#	153923
#	163493
#	176783
#	189688
#	206670
#	222468
#	232430
#	245655
#	261680
#
# Disc length: 3673 seconds
#
# Revision: 1
# Processed by: cddbd v1.5.2PL0 Copyright (c) Steve Scherf et al.
# Submitted via: CDex 1.51
#
DISCID=390e5714
DTITLE=Chrystian e Ralf - Convite Para Ouvir
DYEAR=1994
DGENRE=Country
TTITLE0=Quebradas da Noite (Chrystian e Ralf)
TTITLE1=Casa da Esquina (Chrystian e Ralf)
TTITLE2=Amargurado (Chrystian e Ralf)
TTITLE3=Gemidos Abafados (Chrystian e Ralf)
TTITLE4=Anoche Estuve Llorando (Chrystian e Ralf)
TTITLE5=Camisa Manchada (Chrystian e Ralf)
TTITLE6=Cachorro de Madame (Chrystian e Ralf)
TTITLE7=Pranto de Saudade (Chrystian e Ralf)
TTITLE8=Noite de Tortura (Chrystian e Ralf)
TTITLE9=Piscina (Chrystian e Ralf)
TTITLE10=Flecha Certeira (Chrystian e Ralf)
TTITLE11=Louca Paixão (Chrystian e Ralf)
TTITLE12=Desencontro (Chrystian e Ralf)
TTITLE13=Dona de Casa (Chrystian e Ralf)
TTITLE14=Poeira (Chrystian e Ralf)
TTITLE15=Esta Noite Eu Queria Que o Mundo Acabasse (Chrystian e Ralf)
TTITLE16=Vestido Colado (Chrystian e Ralf)
TTITLE17=Medicina Legal (Chrystian e Ralf)
TTITLE18=A Desesperada (Chrystian e Ralf)
TTITLE19=Berrante de Madalena (Chrystian e Ralf)
EXTD=YEAR: 1994
EXTT0=
EXTT1=
EXTT2=
EXTT3=
EXTT4=
EXTT5=
EXTT6=
EXTT7=
EXTT8=
EXTT9=
EXTT10=
EXTT11=
EXTT12=
EXTT13=
EXTT14=
EXTT15=
EXTT16=
EXTT17=
EXTT18=
EXTT19=
PLAYORDER=
